<?xml version="1.0" standalone="no"?><!DOCTYPE svg PUBLIC "-//W3C//DTD SVG 1.1//EN" "http://www.w3.org/Graphics/SVG/1.1/DTD/svg11.dtd"><svg t="1597678052231" class="icon" viewBox="0 0 1024 1024" version="1.1" xmlns="http://www.w3.org/2000/svg" p-id="1242" xmlns:xlink="http://www.w3.org/1999/xlink" width="16" height="16"><defs><style type="text/css"></style></defs><path d="M248.79104 817.24416a408.34048 408.34048 0 0 0 120.1664 71.38304 408.14592 408.14592 0 0 0 276.65408 3.34848 401.3568 401.3568 0 0 0 101.03808-52.39808A402.29888 402.29888 0 0 0 900.608 620.68736a412.98944 412.98944 0 0 0 11.55072-164.01408l-0.256-2.93888a30.22848 30.22848 0 0 1 26.46016-30.79168c2.93888-0.2048 2.93888-0.2048 5.87776-0.1536a30.22848 30.22848 0 0 1 27.3408 23.40864c0.88064 5.21216 1.39264 10.46528 2.05824 15.67744a465.14176 465.14176 0 0 1-92.22144 330.1888 467.78368 467.78368 0 0 1-109.18912 103.19872 462.67392 462.67392 0 0 1-117.39136 57.30304 468.91008 468.91008 0 0 1-328.13056-15.88224 465.408 465.408 0 0 1-121.72288-77.62944c0.3072 17.74592 0.4096 35.4816-0.6656 53.22752a31.40608 31.40608 0 0 1-7.48544 17.53088 30.59712 30.59712 0 0 1-48.1792-3.87072 31.60064 31.60064 0 0 1-4.58752-14.90944c-0.82944-42.1376-2.47808-84.3776 0.0512-126.464 0.26624-3.24608 1.024-6.43072 2.27328-9.44128a30.79168 30.79168 0 0 1 25.37472-18.25792c42.0864-2.47808 84.3264-0.93184 126.464-0.1024a30.45376 30.45376 0 0 1 21.3504 50.23744 30.73024 30.73024 0 0 1-22.53824 10.20928h-48.25088z m528.03584-611.4304a408.8832 408.8832 0 0 0-117.44256-71.17824 407.93088 407.93088 0 0 0-304.04608 3.66592 401.03936 401.03936 0 0 0-98.4064 59.10528 409.21088 409.21088 0 0 0-87.27552 98.6112A404.38784 404.38784 0 0 0 109.568 545.54624c0.77824 8.71424 2.11968 17.37728 2.88768 26.04032v2.99008a33.05472 33.05472 0 0 1-4.48512 14.0288 30.49472 30.49472 0 0 1-43.99104 8.15104 32.26624 32.26624 0 0 1-11.08992-17.01888c-1.03424-5.26336-1.54624-10.52672-2.22208-15.83104a476.29312 476.29312 0 0 1 12.01152-170.71104 461.568 461.568 0 0 1 55.808-129.24928 467.5584 467.5584 0 0 1 223.9488-185.56928 471.87968 471.87968 0 0 1 158.34112-31.71328c5.51936-0.1536 11.08992-0.1536 16.66048-0.1536a464.1792 464.1792 0 0 1 240.24064 70.1952 467.8656 467.8656 0 0 1 59.41248 44.24704 649.50272 649.50272 0 0 1 0.77824-50.1248 30.58688 30.58688 0 0 1 27.648-27.6992l3.65568-0.0512a30.49472 30.49472 0 0 1 28.88704 28.98944c0.88064 42.1376 2.58048 84.3264 0 126.464a31.0272 31.0272 0 0 1-2.27328 9.33888 30.6176 30.6176 0 0 1-25.37472 18.30912c-42.5472 2.58048-85.15584 2.58048-127.70304 0a30.42304 30.42304 0 0 1-11.60192-56.89344 30.5664 30.5664 0 0 1 12.84096-3.39968l1.18784-0.0512h51.69152z m0 0" p-id="1243"></path></svg>