<?xml version="1.0" standalone="no"?><!DOCTYPE svg PUBLIC "-//W3C//DTD SVG 1.1//EN" "http://www.w3.org/Graphics/SVG/1.1/DTD/svg11.dtd"><svg t="1597678072421" class="icon" viewBox="0 0 1024 1024" version="1.1" xmlns="http://www.w3.org/2000/svg" p-id="1760" xmlns:xlink="http://www.w3.org/1999/xlink" width="16" height="16"><defs><style type="text/css"></style></defs><path d="M470.604255 77.017872a11.874043 11.874043 0 0 0-11.874042-11.874042H121.07166a11.874043 11.874043 0 0 0-11.874043 11.874042v869.746383c0 6.53617 5.316085 11.874043 11.874043 11.874043h337.658553a11.874043 11.874043 0 0 0 11.874042-11.874043V77.017872z m66.995745 240.552851h339.357957a83.18366 83.18366 0 0 1 83.205447 83.18366v538.732936a83.18366 83.18366 0 0 1-83.205447 83.18366h-410.689361v-0.87149a83.445106 83.445106 0 0 1-11.89583 0.87149H126.954213A83.18366 83.18366 0 0 1 43.770553 939.465532V83.837277A83.227234 83.227234 0 0 1 126.954213 0.653617h327.462127a83.227234 83.227234 0 0 1 83.18366 83.18366v233.733446z m0 641.067575l345.022638-0.588255a11.874043 11.874043 0 0 0 11.874043-11.874043V392.540596a11.874043 11.874043 0 0 0-11.874043-11.89583l-345.066212 0.588255L537.6 958.638298z" fill="#000000" p-id="1761"></path><path d="M343.519319 301.034213c14.161702 0 27.234043 6.231149 34.293107 16.340425a27.822298 27.822298 0 0 1 0 32.680851c-7.059064 10.109277-20.153191 16.340426-34.293107 16.340426h-105.668085c-14.161702 0-27.234043-6.231149-34.293106-16.340426a27.822298 27.822298 0 0 1 0-32.680851c7.059064-10.109277 20.153191-16.340426 34.293106-16.340425h105.668085z m0 158.48034c21.874383 0 39.630979 14.619234 39.630979 32.680851 0 18.03983-17.756596 32.680851-39.630979 32.680851h-105.668085c-21.874383 0-39.630979-14.641021-39.630979-32.680851 0-18.061617 17.756596-32.680851 39.630979-32.680851h105.668085z m422.498043 105.624511c21.874383 0 39.630979 14.619234 39.630978 32.680851 0 18.03983-17.756596 32.680851-39.630978 32.680851h-105.624511c-21.874383 0-39.609191-14.641021-39.609191-32.680851 0-18.061617 17.734809-32.680851 39.609191-32.680851h105.624511z m-422.498043 52.812255c21.874383 0 39.630979 14.619234 39.630979 32.680851 0 18.03983-17.756596 32.680851-39.630979 32.680851h-105.668085c-21.874383 0-39.630979-14.641021-39.630979-32.680851 0-18.061617 17.756596-32.680851 39.630979-32.680851h105.668085zM766.039149 723.554043c14.161702 0 27.234043 6.231149 34.293106 16.340425a27.822298 27.822298 0 0 1 0 32.680851c-7.059064 10.109277-20.153191 16.340426-34.293106 16.340426h-105.624511c-14.161702 0-27.234043-6.231149-34.293106-16.340426a27.822298 27.822298 0 0 1 0-32.680851c7.080851-10.109277 20.153191-16.340426 34.293106-16.340425h105.624511z" fill="#000000" p-id="1762"></path></svg>